<svg width="512" height="512" viewBox="0 0 36 36" fill="none" xmlns="http://www.w3.org/2000/svg">
<g id="g128501">
<g id="g128495">
<path id="path128489" d="M18 0.00146484C13.2261 0.00146484 8.64777 1.89789 5.27212 5.27354C1.89646 8.6492 0 13.2276 0 18.0015C0 22.7754 1.89646 27.3537 5.27212 30.7294C8.64777 34.105 13.2261 36.0015 18 36.0015C22.7739 36.0015 27.3523 34.105 30.728 30.7294C34.1036 27.3537 36 22.7754 36 18.0015C36 13.2276 34.1036 8.6492 30.728 5.27354C27.3523 1.89789 22.7739 0.00146484 18 0.00146484Z" fill="#37C8AB"/>
<path id="path128491" d="M36 17.9985C36 14.8389 35.1683 11.7349 33.5884 8.99853C32.0086 6.26219 29.7363 3.9899 27 2.41007C24.2637 0.830242 21.1597 -0.00147057 18 -0.00147057C14.8403 -0.00147057 11.7363 0.830246 9 2.41008C6.26366 3.98991 3.9914 6.26219 2.41157 8.99854C0.831741 11.7349 0 14.8389 0 17.9985" fill="#006680"/>
<path id="path128493" d="M36 18.0011C36 20.0449 35.6519 22.0738 34.9707 24.0007H1.02978C0.348522 22.0738 0.000389099 20.0449 0.000362396 18.0011C0.000518799 15.957 0.348827 13.9279 1.03036 12.0008H34.9707C35.652 13.928 36 15.9571 36 18.0011Z" fill="#298F96"/>
</g>
<path id="path128497" d="M13.3208 0.611572C11.1528 1.19248 9.13346 2.15273 7.32617 3.48375V18.0042C7.32617 20.1778 7.76574 22.0801 8.64553 23.7104C9.52532 25.3405 10.7671 26.5952 12.3714 27.475C13.9758 28.3548 15.8524 28.7951 18.0001 28.7951C19.6821 28.7951 21.1697 28.5364 22.4635 28.0189C23.7832 27.5014 24.896 26.7633 25.8017 25.8059C26.7332 24.8226 27.4442 23.6712 27.9359 22.3516C28.4275 21.0318 28.6733 19.5962 28.6733 18.0437C28.6733 16.0253 28.2594 14.2655 27.4314 12.7648C26.6292 11.264 25.5171 10.0863 24.0939 9.23232C22.6707 8.37839 21.0142 7.95167 19.1253 7.95167C18.3231 7.95167 17.5601 8.05492 16.8355 8.26201C16.1369 8.469 15.49 8.7797 14.8948 9.19365C14.3255 9.58189 13.8468 10.0479 13.4586 10.5912H13.3418L13.3208 0.611572Z" fill="white"/>
<path id="path128499" d="M22.3209 18.1808C22.2859 18.9764 20.0488 19.0473 19.4614 19.5852C18.874 20.1231 18.6071 22.3454 17.8114 22.3104C17.0157 22.2754 16.9449 20.0382 16.407 19.4509C15.8691 18.8635 13.6468 18.5966 13.6818 17.8009C13.7167 17.0052 15.9539 16.9344 16.5413 16.3965C17.1287 15.8586 17.3956 13.6362 18.1913 13.6712C18.987 13.7062 19.0578 15.9434 19.5957 16.5308C20.1336 17.1181 22.3559 17.3851 22.3209 18.1808Z" fill="#006680"/>
</g>
</svg>
